# xmcd CD database file
#
# Track frame offsets:
#	150
#	10174
#	23809
#	33404
#	52949
#	69440
#	90288
#	103527
#	120010
#	139401
#	157532
#	164901
#	180446
#	205753
#
# Disc length: 3435 seconds
#
# Revision: 4
# Processed by: cddbd v1.4PL0 Copyright (c) Steve Scherf et al.
# Submitted via: CDex 1.40Release
#
DISCID=a00d690e
DTITLE=mes souliers sont rouges - gaillardise
DYEAR=1900
DGENRE=Country
TTITLE0=bac'a pompes
TTITLE1=le mal de dents
TTITLE2=en filant ma quenouille
TTITLE3=sainte Cécile
TTITLE4=gênes et tiques
TTITLE5=l'horloge
TTITLE6=dans la ville de paris
TTITLE7=l'arbre aux mille racines
TTITLE8=grand-père Noé
TTITLE9=le galant maudit
TTITLE10=le matin je me lève
TTITLE11=disco zachareel
TTITLE12=à l'enterrement de Kallagan
TTITLE13=joli coeur de rose
EXTD=ID3G: 2
EXTT0=
EXTT1=
EXTT2=
EXTT3=
EXTT4=
EXTT5=
EXTT6=
EXTT7=
EXTT8=
EXTT9=
EXTT10=
EXTT11=
EXTT12=
EXTT13=
PLAYORDER=
